<?xml version="1.0" encoding="iso-8859-1"?>
<!-- Uploaded to: SVG Repo, www.svgrepo.com, Generator: SVG Repo Mixer Tools -->
<svg height="60px" width="60px" version="1.1" id="Layer_1" xmlns="http://www.w3.org/2000/svg" xmlns:xlink="http://www.w3.org/1999/xlink"
	 viewBox="0 0 512 512" xml:space="preserve">
<path style="fill:#121212;" d="M170.297,395.798h220.281h63.281c1.113,0,2.189-0.141,3.228-0.385
	C487.791,390.099,512,329.714,512,256c0-73.716-24.209-134.099-54.913-139.413c-1.038-0.244-2.115-0.385-3.228-0.385h-63.281
	H121.422H58.14c-1.113,0-2.189,0.141-3.227,0.385C24.209,121.901,0,182.284,0,256c0,73.714,24.209,134.099,54.912,139.413
	c1.04,0.244,2.115,0.385,3.228,0.385h63.281h22.532"/>
<circle style="fill:#73C470;" cx="405.515" cy="256.445" r="14.437"/>
<circle style="fill:#F74848;" cx="470.083" cy="256.445" r="14.437"/>
<circle style="fill:#53CAF9;" cx="437.793" cy="224.167" r="14.437"/>
<path style="fill:#F74848;" d="M105.185,243.955H89.513v-15.672c0-3.689-2.991-6.678-6.678-6.678H71.202
	c-3.688,0-6.678,2.99-6.678,6.678v15.672H48.853c-3.688,0-6.678,2.991-6.678,6.678v11.632c0,3.688,2.991,6.678,6.678,6.678h15.672
	v15.672c0,3.688,2.991,6.678,6.678,6.678h11.632c3.688,0,6.678-2.991,6.678-6.678v-15.672h15.672c3.688,0,6.678-2.991,6.678-6.678
	v-11.632C111.863,246.944,108.872,243.955,105.185,243.955z"/>
<path style="fill:#53CAF9;" d="M367.855,210.078v139.297c0,7.376-5.979,13.357-13.357,13.357H157.501
	c-7.377,0-13.357-5.98-13.357-13.357V162.623c0-7.376,5.979-13.357,13.357-13.357h196.998c7.377,0,13.357,5.98,13.357,13.357v21.111
	"/>
<path style="opacity:0.15;fill:#231F20;enable-background:new    ;" d="M161.953,349.377V162.623
	c0-7.376,5.979-13.357,13.357-13.357h-17.809c-7.377,0-13.357,5.98-13.357,13.357v186.752c0,7.376,5.979,13.357,13.357,13.357
	h17.809C167.933,362.733,161.953,356.753,161.953,349.377z"/>
<g>
	<path style="fill:#8AACAD;" d="M457.087,116.587c-1.038-0.244-2.115-0.385-3.228-0.385h-49.734v24.868
		c0,7.376,5.98,13.357,13.357,13.357h75.95C483.803,132.961,471.125,119.016,457.087,116.587z"/>
	<path style="fill:#8AACAD;" d="M58.14,116.202c-1.113,0-2.189,0.141-3.227,0.385c-14.038,2.429-26.716,16.374-36.345,37.839h75.951
		c7.377,0,13.357-5.98,13.357-13.357v-24.868H58.14z"/>
</g>
<circle style="fill:#EFBA00;" cx="437.793" cy="288.723" r="14.437"/>
<g>
	<path style="fill:#8AACAD;" d="M457.087,395.413c-1.038,0.244-2.115,0.385-3.228,0.385h-49.734v-24.868
		c0-7.376,5.98-13.357,13.357-13.357h75.95C483.803,379.039,471.125,392.984,457.087,395.413z"/>
	<path style="fill:#8AACAD;" d="M58.14,395.798c-1.113,0-2.189-0.141-3.227-0.385c-14.038-2.429-26.716-16.374-36.345-37.839h75.951
		c7.377,0,13.357,5.98,13.357,13.357v24.868H58.14z"/>
</g>
<path style="opacity:0.15;fill:#231F20;enable-background:new    ;" d="M17.809,256c0-73.716,24.209-134.099,54.913-139.413
	c1.038-0.244,2.114-0.385,3.227-0.385H58.14c-1.113,0-2.189,0.141-3.227,0.385C24.209,121.901,0,182.284,0,256
	c0,73.714,24.209,134.099,54.912,139.413c1.04,0.244,2.115,0.385,3.228,0.385h17.809c-1.113,0-2.189-0.141-3.228-0.385
	C42.017,390.099,17.809,329.714,17.809,256z"/>
<g>
	<path style="fill:#73C470;" d="M211.617,212.588c0,1.971-1.598,3.57-3.57,3.57h-19.852c-1.971,0-3.57-1.598-3.57-3.57v-19.852
		c0-1.971,1.598-3.57,3.57-3.57h19.852c1.971,0,3.57,1.598,3.57,3.57V212.588z"/>
	<path style="fill:#73C470;" d="M211.617,265.927c0,1.971-1.598,3.57-3.57,3.57h-19.852c-1.971,0-3.57-1.598-3.57-3.57v-19.852
		c0-1.971,1.598-3.57,3.57-3.57h19.852c1.971,0,3.57,1.598,3.57,3.57V265.927z"/>
</g>
<g>
	<path style="fill:#A8E2EF;" d="M327.374,211.01h-87.652c-4.61,0-8.348-3.736-8.348-8.348s3.738-8.348,8.348-8.348h87.652
		c4.61,0,8.348,3.736,8.348,8.348S331.984,211.01,327.374,211.01z"/>
	<path style="fill:#A8E2EF;" d="M327.374,264.349h-87.652c-4.61,0-8.348-3.736-8.348-8.348c0-4.611,3.738-8.348,8.348-8.348h87.652
		c4.61,0,8.348,3.736,8.348,8.348C335.722,260.612,331.984,264.349,327.374,264.349z"/>
	<path style="fill:#A8E2EF;" d="M327.374,317.686h-87.652c-4.61,0-8.348-3.736-8.348-8.348c0-4.61,3.738-8.348,8.348-8.348h87.652
		c4.61,0,8.348,3.738,8.348,8.348C335.722,313.949,331.984,317.686,327.374,317.686z"/>
</g>
<path style="fill:#73C470;" d="M211.617,319.264c0,1.972-1.598,3.57-3.57,3.57h-19.852c-1.971,0-3.57-1.597-3.57-3.57v-19.852
	c0-1.971,1.598-3.57,3.57-3.57h19.852c1.971,0,3.57,1.598,3.57,3.57V319.264z"/>
</svg>